<?xml version="1.0" encoding="utf-8"?>
<!-- Generator: Adobe Illustrator 24.1.2, SVG Export Plug-In . SVG Version: 6.00 Build 0)  -->
<svg version="1.1" xmlns="http://www.w3.org/2000/svg" xmlns:xlink="http://www.w3.org/1999/xlink" x="0px" y="0px"
	 viewBox="0 0 834.91 218.41" style="enable-background:new 0 0 834.91 218.41;" xml:space="preserve">
<style type="text/css">
	.st0{fill:#141414;}
	.st1{fill:#F2F2F2;}
	.st2{fill:#00187C;}
</style>
<g id="Capa_3">
	<g>
		<g>
			<path class="st2" d="M541.78,99.07c-0.48,0.68,0.01,1.61,0.83,1.61c10.95,0,67.29-0.01,95.97-0.05c1.63,0,2.25,0.33,2.17,2.18
				c-0.09,1.51,0.58,3.19-2.17,3.18c-35.83-0.08-71.66-0.05-107.5-0.07c-1.99,0-3.99-0.06-5.98-0.14c-2.06-0.09-3.18-1.75-2.38-3.65
				c0.49-1.16,1.2-2.26,1.97-3.27c3.72-4.81,7.5-9.56,11.25-14.35c3.59-4.58,6.99-9.32,10.82-13.69c2.4-2.73,4.29-5.1,7.21-7.28
				c3.41-2.55,8.34-3.51,12.7-3.5c35.43,0.1,70.86,0.05,106.3,0.05c4.47,0,5.98,1.98,3.44,5.56c-5.41,7.61-11.19,15.05-19.38,19.98
				c-1.69,1.02-3.93,1.56-5.92,1.56c-32.79,0.08-65.59,0.04-98.38,0.08c-0.92,0-2.15,0.37-2.7,1.02
				C547.69,91.11,543.66,96.39,541.78,99.07z M611.15,67.92c-13.2,0-26.4,0.11-39.6-0.07c-3.74-0.05-6.5,1.31-8.77,4
				c-1.91,2.26-3.78,4.56-5.5,6.96c-0.02,0.03-0.04,0.06-0.06,0.08c-0.99,1.51,0.11,3.65,1.92,3.68c0.01,0,0.02,0,0.03,0
				c26.88,0.04,53.76-0.01,80.64,0.07c3.52,0.01,6.22-1.22,8.39-3.8c2.31-2.74,4.56-5.54,6.64-8.45c0.73-1.02,0.01-2.44-1.24-2.44
				C639.44,67.9,625.29,67.92,611.15,67.92z"/>
			<path class="st2" d="M194.04,99.07c-0.48,0.68,0.01,1.61,0.83,1.61c10.95,0,67.29-0.01,95.97-0.05c1.63,0,2.39,0.43,2.2,2.2
				c-0.17,1.5,0.55,3.17-2.19,3.17c-35.83-0.08-71.66-0.05-107.5-0.07c-1.99,0-3.99-0.06-5.98-0.14c-2.06-0.09-3.18-1.75-2.38-3.65
				c0.49-1.16,1.2-2.26,1.97-3.27c3.72-4.81,7.5-9.56,11.25-14.35c3.59-4.58,6.99-9.32,10.82-13.69c2.4-2.73,4.29-5.1,7.21-7.28
				c3.41-2.55,8.34-3.51,12.7-3.5c35.43,0.1,70.86,0.05,106.3,0.05c4.47,0,5.98,1.98,3.44,5.56c-5.41,7.61-11.19,15.05-19.38,19.98
				c-1.69,1.02-3.93,1.56-5.92,1.56c-32.79,0.08-65.59,0.04-98.38,0.08c-0.92,0-2.15,0.37-2.7,1.02
				C199.95,91.11,195.92,96.39,194.04,99.07z M263.4,67.92c-13.2,0-26.4,0.11-39.6-0.07c-3.74-0.05-6.5,1.31-8.77,4
				c-1.91,2.26-3.78,4.56-5.5,6.96c-0.02,0.03-0.04,0.06-0.06,0.08c-0.99,1.51,0.11,3.65,1.92,3.68c0.01,0,0.02,0,0.03,0
				c26.88,0.04,53.76-0.01,80.64,0.07c3.52,0.01,6.22-1.22,8.39-3.8c2.31-2.74,4.56-5.54,6.64-8.45c0.73-1.02,0.01-2.44-1.24-2.44
				C291.7,67.9,277.55,67.92,263.4,67.92z"/>
			<path class="st2" d="M96.48,72.02c-0.33,0.48,0.01,1.13,0.6,1.13c0.94,0,1.81,0,2.67,0c26.63,0,53.26-0.01,79.89-0.01
				c4.41,0,6.34,2.37,3.96,6.03c-6.15,9.45-11.79,19.57-22.8,24.51c-1.62,0.73-3.55,1.07-5.34,1.07
				c-30.31,0.06-60.62,0.03-90.92,0.07c-4.26,0.01-5.9-2.49-3.47-6.51c4.04-6.01,7.51-10.53,11.51-15.61
				c7.32-9.29,14.81-18.45,22.14-27.74c1.47-1.86,2.85-2.39,5.72-2.25c3.29-0.06,7.9-0.05,7.98-0.05c1.07-0.13,1.82,1.21,1.16,2.07
				c0,0-0.01,0.01-0.01,0.01C105.78,59.6,98.75,68.8,96.48,72.02z M97.18,79.48c-4.07-0.06-7.12,1.41-9.52,4.5
				c-3.04,3.91-6.06,7.83-8.99,11.83c-0.01,0.01-0.01,0.02-0.02,0.02c-1.03,1.44,0.08,3.55,1.85,3.58c0.02,0,0.03,0,0.05,0
				c22.61,0.03,45.23-0.01,67.84,0.07c3.12,0.01,5.72-0.94,7.73-3.12c4.05-4.41,7.95-8.96,11.83-13.52c0.2-0.24,0.34-0.53,0.44-0.85
				c0.31-0.95-0.22-1.97-1.17-2.27c-0.34-0.1-0.67-0.18-1.01-0.18C154.47,79.5,108.44,79.66,97.18,79.48z"/>
			<g>
				<path class="st2" d="M391.49,115.78c3.95,0.04,7.07-1.3,9.96-3.87c7.29-6.51,13.01-14.29,18.44-22.31
					c0.99-1.46,1.98-2.91,2.97-4.36c4.37-6.45,10.33-10.19,18.23-10.28c18.15-0.2,74.61-0.14,84.69-0.05
					c1.55,0.01,2.59,0.1,2.59,2.12c-0.01,2.01-1.03,2.12-2.59,2.12c-22.48-0.04-74.07,0.31-77.5,0.29
					c-6.22-0.2-10.79,2.72-14.25,7.46c-3.48,4.77-6.52,9.86-9.89,14.71c-2.96,4.26-6,8.48-9.24,12.52
					c-3.02,3.77-7.28,5.35-12.02,5.67c-1.91,0.13-3.84,0.15-5.76,0.15c-27.44,0.01-54.87,0-82.31,0.03c-1.59,0-2.84,0.08-2.76-2.2
					c0.01-2.34,1.45-2.04,2.89-2.04C327.98,115.73,379.02,115.65,391.49,115.78z"/>
				<path class="st2" d="M435.3,65.05c-2.89,0.08-5.48,1.03-7.33,3.07c-3.21,3.53-6.28,7.23-9.04,11.11
					c-3.65,5.14-6.95,10.54-10.41,15.82c-4.8,7.32-11.51,10.37-20.32,10.29c-27.04-0.25-82.89-0.16-83.76-0.06
					c-1.69,0.19-2.5-0.3-2.49-2.2c0-1.97,0.94-2.12,2.57-2.11c25.92,0.05,51.84,0.02,77.76,0.07c3.41,0.01,6.14-1.28,8.65-3.49
					c6.9-6.09,12.48-13.25,17.6-20.84c1.16-1.72,2.4-3.4,3.49-5.17c4.8-7.74,11.8-11.43,20.84-11.46c16.64-0.07,71.83,0,82.79,0.06
					c1.6,0.01,2.57,0.24,2.59,2.18c0.02,1.96-0.95,2.16-2.56,2.16C502.24,64.41,448.65,64.66,435.3,65.05z"/>
			</g>
			<path class="st2" d="M707.68,67.83c-4.35-0.1-7.35,1.7-9.82,4.9c-4.54,5.89-20.19,26.54-23.37,31.05
				c-1.1,1.56-2.34,2.15-4.21,2.07c-2.95-0.13-5.92-0.02-8.88-0.06c-3.15-0.05-4.26-1.71-2.51-4.29c2.82-4.16,5.96-8.11,9.04-12.09
				c4.84-6.24,9.57-12.57,14.69-18.57c2.45-2.88,5.54-5.29,8.61-7.54c3.15-2.3,6.8-3.24,10.83-3.22c23.44,0.1,46.88,0.08,70.31,0
				c2.23-0.01,2.69,0.75,2.59,2.79c-0.22,4.51-0.13,4.54-4.66,4.54C759.91,67.41,719.24,67.87,707.68,67.83z"/>
		</g>
		<g>
			<path class="st2" d="M495.93,155.82c0.26-0.64,1.01-0.89,1.62-0.58c1.74,0.9,3.9,1.51,6.2,1.51c4.75,0,7.63-2.62,7.63-6.41
				c0-3.47-1.84-5.5-6.56-7.24c-5.44-1.88-8.49-4.56-8.49-8.95c0-4.79,4-8.31,9.74-8.31c2.42,0,4.38,0.46,5.7,1.02
				c0.59,0.25,0.87,0.92,0.62,1.51l-0.05,0.13c-0.25,0.6-0.95,0.86-1.55,0.6c-1.12-0.5-2.8-0.99-4.86-0.99
				c-5.12,0-6.87,3.19-6.87,5.64c0,3.41,2.04,5.17,6.72,6.93c5.46,2.1,8.33,4.54,8.33,9.42c0,4.69-3.39,8.97-10.61,8.97
				c-2.49,0-5.28-0.67-7.13-1.65c-0.51-0.27-0.72-0.9-0.5-1.44L495.93,155.82z"/>
			<path class="st2" d="M549.33,142.11c0,11.22-7.09,16.97-14.92,16.97c-8.31,0-14.53-6.43-14.53-16.3
				c0-10.4,6.53-16.96,14.92-16.96C543.34,125.82,549.33,132.35,549.33,142.11z M522.75,142.7c0,7.22,4.29,14.12,11.81,14.12
				c7.56,0,11.89-6.64,11.89-14.55c0-6.73-3.79-14.19-11.8-14.19C526.62,128.08,522.75,135.22,522.75,142.7z"/>
			<path class="st2" d="M558.12,126.35L558.12,126.35c0.76,0,1.37,0.61,1.37,1.37v28.01c0,0.28,0.22,0.5,0.5,0.5h12.88
				c0.64,0,1.15,0.52,1.15,1.15v0c0,0.64-0.52,1.15-1.15,1.15h-14.75c-0.76,0-1.37-0.61-1.37-1.37v-29.44
				C556.75,126.97,557.36,126.35,558.12,126.35z"/>
			<path class="st2" d="M580.31,126.35c0.64,0,1.15,0.52,1.15,1.15v18.02c0,8.05,3.78,11.26,8.54,11.26c5.3,0,8.96-3.43,8.96-11.26
				v-18.02c0-0.64,0.52-1.15,1.15-1.15h0.44c0.64,0,1.15,0.52,1.15,1.15v17.8c0,9.98-5.4,13.77-11.85,13.77
				c-5.97,0-11.14-3.46-11.14-13.48v-18.09c0-0.64,0.52-1.15,1.15-1.15H580.31z"/>
			<path class="st2" d="M617,128.66h-8.97c-0.64,0-1.15-0.52-1.15-1.15v0c0-0.64,0.52-1.15,1.15-1.15h21.69
				c0.64,0,1.15,0.52,1.15,1.15v0c0,0.64-0.52,1.15-1.15,1.15h-8.98c-0.28,0-0.5,0.22-0.5,0.5v28.23c0,0.64-0.52,1.15-1.15,1.15
				h-0.44c-0.64,0-1.15-0.52-1.15-1.15v-28.23C617.5,128.88,617.28,128.66,617,128.66z"/>
			<path class="st2" d="M638.78,127.51v29.88c0,0.64-0.52,1.15-1.15,1.15h-0.44c-0.64,0-1.15-0.52-1.15-1.15v-29.88
				c0-0.64,0.52-1.15,1.15-1.15h0.44C638.26,126.35,638.78,126.87,638.78,127.51z"/>
			<path class="st2" d="M675.7,142.11c0,11.22-7.09,16.97-14.92,16.97c-8.31,0-14.53-6.43-14.53-16.3c0-10.4,6.53-16.96,14.92-16.96
				C669.71,125.82,675.7,132.35,675.7,142.11z M649.13,142.7c0,7.22,4.29,14.12,11.81,14.12c7.56,0,11.89-6.64,11.89-14.55
				c0-6.73-3.79-14.19-11.8-14.19C652.99,128.08,649.13,135.22,649.13,142.7z"/>
			<path class="st2" d="M683.12,157.39v-29.88c0-0.64,0.52-1.15,1.15-1.15h0.99c0.38,0,0.74,0.19,0.96,0.51l12.05,17.99
				c2.62,3.97,4.5,6.96,6.07,10.1l0.1-0.07c-0.35-4.21-0.39-7.97-0.39-12.99v-14.39c0-0.64,0.52-1.15,1.15-1.15h0.33
				c0.64,0,1.15,0.52,1.15,1.15v29.88c0,0.64-0.52,1.15-1.15,1.15h-0.87c-0.39,0-0.75-0.19-0.96-0.51l-11.79-17.72
				c-2.42-3.68-4.67-7.14-6.31-10.43l-0.14,0.07c0.25,3.94,0.3,7.49,0.3,12.73v14.71c0,0.64-0.52,1.15-1.15,1.15h-0.33
				C683.64,158.54,683.12,158.03,683.12,157.39z"/>
			<path class="st2" d="M714.81,155.82c0.26-0.64,1.01-0.89,1.62-0.58c1.74,0.9,3.9,1.51,6.2,1.51c4.75,0,7.63-2.62,7.63-6.41
				c0-3.47-1.84-5.5-6.56-7.24c-5.44-1.88-8.49-4.56-8.49-8.95c0-4.79,4-8.31,9.74-8.31c2.42,0,4.38,0.46,5.7,1.02
				c0.59,0.25,0.87,0.92,0.62,1.51l-0.05,0.13c-0.25,0.6-0.95,0.86-1.55,0.6c-1.12-0.5-2.8-0.99-4.86-0.99
				c-5.12,0-6.87,3.19-6.87,5.64c0,3.41,2.04,5.17,6.72,6.93c5.46,2.1,8.33,4.54,8.33,9.42c0,4.69-3.39,8.97-10.61,8.97
				c-2.49,0-5.28-0.67-7.13-1.65c-0.51-0.27-0.72-0.9-0.5-1.44L714.81,155.82z"/>
		</g>
	</g>
</g>
<g id="Capa_2">
</g>
</svg>
