<svg xmlns="http://www.w3.org/2000/svg" version="1.1" xmlns:xlink="http://www.w3.org/1999/xlink" xmlns:svgjs="http://svgjs.com/svgjs" width="1440" height="560" preserveAspectRatio="none" viewBox="0 0 1440 560"><g mask="url(&quot;#SvgjsMask1000&quot;)" fill="none"><rect width="1440" height="560" x="0" y="0" fill="#0e2a47"></rect><path d="M-60.91 384.68L-60.91 384.68" stroke="#132e65" stroke-width="1.5"></path><path d="M-60.91 384.68L-68.55 493" stroke="#132e65" stroke-width="1.5"></path><path d="M-60.91 384.68L59.94 341.82" stroke="#132e65" stroke-width="1.5"></path><path d="M-60.91 384.68L93.5 540.36" stroke="#132e65" stroke-width="1.5"></path><path d="M-68.55 493L-68.55 493" stroke="#132e65" stroke-width="1.5"></path><path d="M-68.55 493L93.5 540.36" stroke="#132e65" stroke-width="1.5"></path><path d="M-68.55 493L59.94 341.82" stroke="#132e65" stroke-width="1.5"></path><path d="M59.94 341.82L59.94 341.82" stroke="#132e65" stroke-width="1.5"></path><path d="M59.94 341.82L235.59 342.71" stroke="#132e65" stroke-width="1.5"></path><path d="M59.94 341.82L93.5 540.36" stroke="#132e65" stroke-width="1.5"></path><path d="M93.5 540.36L93.5 540.36" stroke="#132e65" stroke-width="1.5"></path><path d="M93.5 540.36L213.69 508.35" stroke="#132e65" stroke-width="1.5"></path><path d="M93.5 540.36L73.79 692.01" stroke="#132e65" stroke-width="1.5"></path><path d="M73.79 692.01L73.79 692.01" stroke="#132e65" stroke-width="1.5"></path><path d="M73.79 692.01L255.27 701.04" stroke="#132e65" stroke-width="1.5"></path><path d="M73.79 692.01L213.69 508.35" stroke="#132e65" stroke-width="1.5"></path><path d="M73.79 692.01L-68.55 493" stroke="#132e65" stroke-width="1.5"></path><path d="M73.79 692.01L-60.91 384.68" stroke="#132e65" stroke-width="1.5"></path><path d="M235.59 342.71L235.59 342.71" stroke="#132e65" stroke-width="1.5"></path><path d="M235.59 342.71L213.69 508.35" stroke="#132e65" stroke-width="1.5"></path><path d="M235.59 342.71L405.46 364.98" stroke="#132e65" stroke-width="1.5"></path><path d="M235.59 342.71L93.5 540.36" stroke="#132e65" stroke-width="1.5"></path><path d="M235.59 342.71L501.35 368.38" stroke="#132e65" stroke-width="1.5"></path><path d="M235.59 342.71L-60.91 384.68" stroke="#132e65" stroke-width="1.5"></path><path d="M213.69 508.35L213.69 508.35" stroke="#132e65" stroke-width="1.5"></path><path d="M213.69 508.35L255.27 701.04" stroke="#132e65" stroke-width="1.5"></path><path d="M255.27 701.04L255.27 701.04" stroke="#132e65" stroke-width="1.5"></path><path d="M255.27 701.04L409.84 662.89" stroke="#132e65" stroke-width="1.5"></path><path d="M255.27 701.04L93.5 540.36" stroke="#132e65" stroke-width="1.5"></path><path d="M255.27 701.04L520.5 654.27" stroke="#132e65" stroke-width="1.5"></path><path d="M255.27 701.04L546.23 525.41" stroke="#132e65" stroke-width="1.5"></path><path d="M405.46 364.98L405.46 364.98" stroke="#132e65" stroke-width="1.5"></path><path d="M405.46 364.98L501.35 368.38" stroke="#132e65" stroke-width="1.5"></path><path d="M405.46 364.98L546.23 525.41" stroke="#132e65" stroke-width="1.5"></path><path d="M405.46 364.98L213.69 508.35" stroke="#132e65" stroke-width="1.5"></path><path d="M405.46 364.98L653 234.77" stroke="#132e65" stroke-width="1.5"></path><path d="M405.46 364.98L700.56 387.69" stroke="#132e65" stroke-width="1.5"></path><path d="M409.84 662.89L409.84 662.89" stroke="#132e65" stroke-width="1.5"></path><path d="M409.84 662.89L520.5 654.27" stroke="#132e65" stroke-width="1.5"></path><path d="M409.84 662.89L546.23 525.41" stroke="#132e65" stroke-width="1.5"></path><path d="M409.84 662.89L213.69 508.35" stroke="#132e65" stroke-width="1.5"></path><path d="M409.84 662.89L676.73 640.3" stroke="#132e65" stroke-width="1.5"></path><path d="M409.84 662.89L664.67 518.09" stroke="#132e65" stroke-width="1.5"></path><path d="M501.35 368.38L501.35 368.38" stroke="#132e65" stroke-width="1.5"></path><path d="M501.35 368.38L546.23 525.41" stroke="#132e65" stroke-width="1.5"></path><path d="M501.35 368.38L700.56 387.69" stroke="#132e65" stroke-width="1.5"></path><path d="M501.35 368.38L653 234.77" stroke="#132e65" stroke-width="1.5"></path><path d="M501.35 368.38L664.67 518.09" stroke="#132e65" stroke-width="1.5"></path><path d="M546.23 525.41L546.23 525.41" stroke="#132e65" stroke-width="1.5"></path><path d="M546.23 525.41L664.67 518.09" stroke="#132e65" stroke-width="1.5"></path><path d="M546.23 525.41L520.5 654.27" stroke="#132e65" stroke-width="1.5"></path><path d="M546.23 525.41L676.73 640.3" stroke="#132e65" stroke-width="1.5"></path><path d="M520.5 654.27L520.5 654.27" stroke="#132e65" stroke-width="1.5"></path><path d="M653 234.77L653 234.77" stroke="#132e65" stroke-width="1.5"></path><path d="M653 234.77L700.56 387.69" stroke="#132e65" stroke-width="1.5"></path><path d="M653 234.77L812.88 253.98" stroke="#132e65" stroke-width="1.5"></path><path d="M653 234.77L848.44 370.41" stroke="#132e65" stroke-width="1.5"></path><path d="M653 234.77L842.28 87.33" stroke="#132e65" stroke-width="1.5"></path><path d="M700.56 387.69L700.56 387.69" stroke="#132e65" stroke-width="1.5"></path><path d="M700.56 387.69L664.67 518.09" stroke="#132e65" stroke-width="1.5"></path><path d="M700.56 387.69L848.44 370.41" stroke="#132e65" stroke-width="1.5"></path><path d="M664.67 518.09L664.67 518.09" stroke="#132e65" stroke-width="1.5"></path><path d="M664.67 518.09L676.73 640.3" stroke="#132e65" stroke-width="1.5"></path><path d="M664.67 518.09L520.5 654.27" stroke="#132e65" stroke-width="1.5"></path><path d="M676.73 640.3L676.73 640.3" stroke="#132e65" stroke-width="1.5"></path><path d="M676.73 640.3L520.5 654.27" stroke="#132e65" stroke-width="1.5"></path><path d="M842.28 87.33L842.28 87.33" stroke="#132e65" stroke-width="1.5"></path><path d="M842.28 87.33L997.06 65.33" stroke="#132e65" stroke-width="1.5"></path><path d="M842.28 87.33L812.88 253.98" stroke="#132e65" stroke-width="1.5"></path><path d="M842.28 87.33L971.57 -64.49" stroke="#132e65" stroke-width="1.5"></path><path d="M842.28 87.33L968.55 251.66" stroke="#132e65" stroke-width="1.5"></path><path d="M842.28 87.33L1119.9 84.92" stroke="#132e65" stroke-width="1.5"></path><path d="M812.88 253.98L812.88 253.98" stroke="#132e65" stroke-width="1.5"></path><path d="M812.88 253.98L848.44 370.41" stroke="#132e65" stroke-width="1.5"></path><path d="M812.88 253.98L968.55 251.66" stroke="#132e65" stroke-width="1.5"></path><path d="M848.44 370.41L848.44 370.41" stroke="#132e65" stroke-width="1.5"></path><path d="M848.44 370.41L972.31 379.98" stroke="#132e65" stroke-width="1.5"></path><path d="M848.44 370.41L968.55 251.66" stroke="#132e65" stroke-width="1.5"></path><path d="M862.44 674.54L862.44 674.54" stroke="#132e65" stroke-width="1.5"></path><path d="M862.44 674.54L968.11 644.77" stroke="#132e65" stroke-width="1.5"></path><path d="M862.44 674.54L676.73 640.3" stroke="#132e65" stroke-width="1.5"></path><path d="M971.57 -64.49L971.57 -64.49" stroke="#132e65" stroke-width="1.5"></path><path d="M971.57 -64.49L1093.51 -44.99" stroke="#132e65" stroke-width="1.5"></path><path d="M971.57 -64.49L997.06 65.33" stroke="#132e65" stroke-width="1.5"></path><path d="M971.57 -64.49L1119.9 84.92" stroke="#132e65" stroke-width="1.5"></path><path d="M971.57 -64.49L968.55 251.66" stroke="#132e65" stroke-width="1.5"></path><path d="M997.06 65.33L997.06 65.33" stroke="#132e65" stroke-width="1.5"></path><path d="M997.06 65.33L1119.9 84.92" stroke="#132e65" stroke-width="1.5"></path><path d="M997.06 65.33L1093.51 -44.99" stroke="#132e65" stroke-width="1.5"></path><path d="M968.55 251.66L968.55 251.66" stroke="#132e65" stroke-width="1.5"></path><path d="M968.55 251.66L1090.87 236.91" stroke="#132e65" stroke-width="1.5"></path><path d="M968.55 251.66L972.31 379.98" stroke="#132e65" stroke-width="1.5"></path><path d="M968.55 251.66L1104.07 375.81" stroke="#132e65" stroke-width="1.5"></path><path d="M972.31 379.98L972.31 379.98" stroke="#132e65" stroke-width="1.5"></path><path d="M972.31 379.98L1104.07 375.81" stroke="#132e65" stroke-width="1.5"></path><path d="M972.31 379.98L1006.48 551.9" stroke="#132e65" stroke-width="1.5"></path><path d="M972.31 379.98L1090.87 236.91" stroke="#132e65" stroke-width="1.5"></path><path d="M972.31 379.98L1117.95 502.3" stroke="#132e65" stroke-width="1.5"></path><path d="M1006.48 551.9L1006.48 551.9" stroke="#132e65" stroke-width="1.5"></path><path d="M1006.48 551.9L968.11 644.77" stroke="#132e65" stroke-width="1.5"></path><path d="M1006.48 551.9L1117.95 502.3" stroke="#132e65" stroke-width="1.5"></path><path d="M1006.48 551.9L1115.09 664.9" stroke="#132e65" stroke-width="1.5"></path><path d="M968.11 644.77L968.11 644.77" stroke="#132e65" stroke-width="1.5"></path><path d="M1093.51 -44.99L1093.51 -44.99" stroke="#132e65" stroke-width="1.5"></path><path d="M1093.51 -44.99L1119.9 84.92" stroke="#132e65" stroke-width="1.5"></path><path d="M1119.9 84.92L1119.9 84.92" stroke="#132e65" stroke-width="1.5"></path><path d="M1119.9 84.92L1090.87 236.91" stroke="#132e65" stroke-width="1.5"></path><path d="M1119.9 84.92L1310.66 61.69" stroke="#132e65" stroke-width="1.5"></path><path d="M1119.9 84.92L1295.84 212.58" stroke="#132e65" stroke-width="1.5"></path><path d="M1090.87 236.91L1090.87 236.91" stroke="#132e65" stroke-width="1.5"></path><path d="M1090.87 236.91L1104.07 375.81" stroke="#132e65" stroke-width="1.5"></path><path d="M1104.07 375.81L1104.07 375.81" stroke="#132e65" stroke-width="1.5"></path><path d="M1104.07 375.81L1117.95 502.3" stroke="#132e65" stroke-width="1.5"></path><path d="M1117.95 502.3L1117.95 502.3" stroke="#132e65" stroke-width="1.5"></path><path d="M1115.09 664.9L1115.09 664.9" stroke="#132e65" stroke-width="1.5"></path><path d="M1115.09 664.9L968.11 644.77" stroke="#132e65" stroke-width="1.5"></path><path d="M1115.09 664.9L1117.95 502.3" stroke="#132e65" stroke-width="1.5"></path><path d="M1115.09 664.9L1287.17 691.7" stroke="#132e65" stroke-width="1.5"></path><path d="M1115.09 664.9L1281.31 502.51" stroke="#132e65" stroke-width="1.5"></path><path d="M1115.09 664.9L862.44 674.54" stroke="#132e65" stroke-width="1.5"></path><path d="M1295.71 -71.21L1295.71 -71.21" stroke="#132e65" stroke-width="1.5"></path><path d="M1295.71 -71.21L1389.87 -88.87" stroke="#132e65" stroke-width="1.5"></path><path d="M1295.71 -71.21L1310.66 61.69" stroke="#132e65" stroke-width="1.5"></path><path d="M1295.71 -71.21L1407.73 44.68" stroke="#132e65" stroke-width="1.5"></path><path d="M1295.71 -71.21L1093.51 -44.99" stroke="#132e65" stroke-width="1.5"></path><path d="M1310.66 61.69L1310.66 61.69" stroke="#132e65" stroke-width="1.5"></path><path d="M1310.66 61.69L1407.73 44.68" stroke="#132e65" stroke-width="1.5"></path><path d="M1295.84 212.58L1295.84 212.58" stroke="#132e65" stroke-width="1.5"></path><path d="M1295.84 212.58L1411.13 218.71" stroke="#132e65" stroke-width="1.5"></path><path d="M1295.84 212.58L1310.66 61.69" stroke="#132e65" stroke-width="1.5"></path><path d="M1295.84 212.58L1255.67 402.43" stroke="#132e65" stroke-width="1.5"></path><path d="M1295.84 212.58L1407.73 44.68" stroke="#132e65" stroke-width="1.5"></path><path d="M1295.84 212.58L1090.87 236.91" stroke="#132e65" stroke-width="1.5"></path><path d="M1255.67 402.43L1255.67 402.43" stroke="#132e65" stroke-width="1.5"></path><path d="M1255.67 402.43L1281.31 502.51" stroke="#132e65" stroke-width="1.5"></path><path d="M1255.67 402.43L1104.07 375.81" stroke="#132e65" stroke-width="1.5"></path><path d="M1255.67 402.43L1117.95 502.3" stroke="#132e65" stroke-width="1.5"></path><path d="M1255.67 402.43L1433.64 400.97" stroke="#132e65" stroke-width="1.5"></path><path d="M1281.31 502.51L1281.31 502.51" stroke="#132e65" stroke-width="1.5"></path><path d="M1281.31 502.51L1117.95 502.3" stroke="#132e65" stroke-width="1.5"></path><path d="M1281.31 502.51L1433.64 400.97" stroke="#132e65" stroke-width="1.5"></path><path d="M1281.31 502.51L1287.17 691.7" stroke="#132e65" stroke-width="1.5"></path><path d="M1281.31 502.51L1104.07 375.81" stroke="#132e65" stroke-width="1.5"></path><path d="M1281.31 502.51L1445.84 664.47" stroke="#132e65" stroke-width="1.5"></path><path d="M1287.17 691.7L1287.17 691.7" stroke="#132e65" stroke-width="1.5"></path><path d="M1287.17 691.7L1445.84 664.47" stroke="#132e65" stroke-width="1.5"></path><path d="M1389.87 -88.87L1389.87 -88.87" stroke="#132e65" stroke-width="1.5"></path><path d="M1389.87 -88.87L1407.73 44.68" stroke="#132e65" stroke-width="1.5"></path><path d="M1389.87 -88.87L1310.66 61.69" stroke="#132e65" stroke-width="1.5"></path><path d="M1389.87 -88.87L1591 -84.77" stroke="#132e65" stroke-width="1.5"></path><path d="M1407.73 44.68L1407.73 44.68" stroke="#132e65" stroke-width="1.5"></path><path d="M1407.73 44.68L1411.13 218.71" stroke="#132e65" stroke-width="1.5"></path><path d="M1407.73 44.68L1606.05 53.83" stroke="#132e65" stroke-width="1.5"></path><path d="M1411.13 218.71L1411.13 218.71" stroke="#132e65" stroke-width="1.5"></path><path d="M1411.13 218.71L1540.14 213.17" stroke="#132e65" stroke-width="1.5"></path><path d="M1411.13 218.71L1433.64 400.97" stroke="#132e65" stroke-width="1.5"></path><path d="M1411.13 218.71L1310.66 61.69" stroke="#132e65" stroke-width="1.5"></path><path d="M1411.13 218.71L1597.64 365.99" stroke="#132e65" stroke-width="1.5"></path><path d="M1433.64 400.97L1433.64 400.97" stroke="#132e65" stroke-width="1.5"></path><path d="M1433.64 400.97L1597.64 365.99" stroke="#132e65" stroke-width="1.5"></path><path d="M1433.64 400.97L1569.05 523.2" stroke="#132e65" stroke-width="1.5"></path><path d="M1445.84 664.47L1445.84 664.47" stroke="#132e65" stroke-width="1.5"></path><path d="M1445.84 664.47L1567.26 700.37" stroke="#132e65" stroke-width="1.5"></path><path d="M1445.84 664.47L1569.05 523.2" stroke="#132e65" stroke-width="1.5"></path><path d="M1445.84 664.47L1433.64 400.97" stroke="#132e65" stroke-width="1.5"></path><path d="M1445.84 664.47L1255.67 402.43" stroke="#132e65" stroke-width="1.5"></path><path d="M1591 -84.77L1591 -84.77" stroke="#132e65" stroke-width="1.5"></path><path d="M1591 -84.77L1606.05 53.83" stroke="#132e65" stroke-width="1.5"></path><path d="M1591 -84.77L1407.73 44.68" stroke="#132e65" stroke-width="1.5"></path><path d="M1591 -84.77L1295.71 -71.21" stroke="#132e65" stroke-width="1.5"></path><path d="M1591 -84.77L1540.14 213.17" stroke="#132e65" stroke-width="1.5"></path><path d="M1591 -84.77L1310.66 61.69" stroke="#132e65" stroke-width="1.5"></path><path d="M1606.05 53.83L1606.05 53.83" stroke="#132e65" stroke-width="1.5"></path><path d="M1606.05 53.83L1540.14 213.17" stroke="#132e65" stroke-width="1.5"></path><path d="M1606.05 53.83L1411.13 218.71" stroke="#132e65" stroke-width="1.5"></path><path d="M1606.05 53.83L1389.87 -88.87" stroke="#132e65" stroke-width="1.5"></path><path d="M1540.14 213.17L1540.14 213.17" stroke="#132e65" stroke-width="1.5"></path><path d="M1540.14 213.17L1597.64 365.99" stroke="#132e65" stroke-width="1.5"></path><path d="M1540.14 213.17L1407.73 44.68" stroke="#132e65" stroke-width="1.5"></path><path d="M1597.64 365.99L1597.64 365.99" stroke="#132e65" stroke-width="1.5"></path><path d="M1597.64 365.99L1569.05 523.2" stroke="#132e65" stroke-width="1.5"></path><path d="M1569.05 523.2L1569.05 523.2" stroke="#132e65" stroke-width="1.5"></path><path d="M1569.05 523.2L1567.26 700.37" stroke="#132e65" stroke-width="1.5"></path><path d="M1567.26 700.37L1567.26 700.37" stroke="#132e65" stroke-width="1.5"></path><path d="M1567.26 700.37L1287.17 691.7" stroke="#132e65" stroke-width="1.5"></path><circle r="5" cx="-60.91" cy="384.68" fill="#132e65"></circle><circle r="5" cx="-68.55" cy="493" fill="#132e65"></circle><circle r="5" cx="59.94" cy="341.82" fill="#132e65"></circle><circle r="5" cx="93.5" cy="540.36" fill="#132e65"></circle><circle r="5" cx="73.79" cy="692.01" fill="#132e65"></circle><circle r="5" cx="235.59" cy="342.71" fill="#132e65"></circle><circle r="5" cx="213.69" cy="508.35" fill="#132e65"></circle><circle r="5" cx="255.27" cy="701.04" fill="#132e65"></circle><circle r="5" cx="405.46" cy="364.98" fill="#132e65"></circle><circle r="5" cx="409.84" cy="662.89" fill="#132e65"></circle><circle r="5" cx="501.35" cy="368.38" fill="#132e65"></circle><circle r="5" cx="546.23" cy="525.41" fill="#132e65"></circle><circle r="5" cx="520.5" cy="654.27" fill="#132e65"></circle><circle r="5" cx="653" cy="234.77" fill="#132e65"></circle><circle r="5" cx="700.56" cy="387.69" fill="#132e65"></circle><circle r="5" cx="664.67" cy="518.09" fill="#132e65"></circle><circle r="5" cx="676.73" cy="640.3" fill="#132e65"></circle><circle r="5" cx="842.28" cy="87.33" fill="#132e65"></circle><circle r="5" cx="812.88" cy="253.98" fill="#132e65"></circle><circle r="5" cx="848.44" cy="370.41" fill="#132e65"></circle><circle r="5" cx="862.44" cy="674.54" fill="#132e65"></circle><circle r="5" cx="971.57" cy="-64.49" fill="#132e65"></circle><circle r="5" cx="997.06" cy="65.33" fill="#132e65"></circle><circle r="5" cx="968.55" cy="251.66" fill="#132e65"></circle><circle r="5" cx="972.31" cy="379.98" fill="#132e65"></circle><circle r="5" cx="1006.48" cy="551.9" fill="#132e65"></circle><circle r="5" cx="968.11" cy="644.77" fill="#132e65"></circle><circle r="5" cx="1093.51" cy="-44.99" fill="#132e65"></circle><circle r="5" cx="1119.9" cy="84.92" fill="#132e65"></circle><circle r="5" cx="1090.87" cy="236.91" fill="#132e65"></circle><circle r="5" cx="1104.07" cy="375.81" fill="#132e65"></circle><circle r="5" cx="1117.95" cy="502.3" fill="#132e65"></circle><circle r="5" cx="1115.09" cy="664.9" fill="#132e65"></circle><circle r="5" cx="1295.71" cy="-71.21" fill="#132e65"></circle><circle r="5" cx="1310.66" cy="61.69" fill="#132e65"></circle><circle r="5" cx="1295.84" cy="212.58" fill="#132e65"></circle><circle r="5" cx="1255.67" cy="402.43" fill="#132e65"></circle><circle r="5" cx="1281.31" cy="502.51" fill="#132e65"></circle><circle r="5" cx="1287.17" cy="691.7" fill="#132e65"></circle><circle r="5" cx="1389.87" cy="-88.87" fill="#132e65"></circle><circle r="5" cx="1407.73" cy="44.68" fill="#132e65"></circle><circle r="5" cx="1411.13" cy="218.71" fill="#132e65"></circle><circle r="5" cx="1433.64" cy="400.97" fill="#132e65"></circle><circle r="5" cx="1445.84" cy="664.47" fill="#132e65"></circle><circle r="5" cx="1591" cy="-84.77" fill="#132e65"></circle><circle r="5" cx="1606.05" cy="53.83" fill="#132e65"></circle><circle r="5" cx="1540.14" cy="213.17" fill="#132e65"></circle><circle r="5" cx="1597.64" cy="365.99" fill="#132e65"></circle><circle r="5" cx="1569.05" cy="523.2" fill="#132e65"></circle><circle r="5" cx="1567.26" cy="700.37" fill="#132e65"></circle><path d="M257.23 675.89L257.23 675.89" stroke="hsl(228.5, 77.2%, 51.5%)" stroke-width="1.5"></path><path d="M257.23 675.89L363.34 641.95" stroke="hsl(228.5, 77.2%, 51.5%)" stroke-width="1.5"></path><path d="M257.23 675.89L240.05 500.82" stroke="hsl(228.5, 77.2%, 51.5%)" stroke-width="1.5"></path><path d="M257.23 675.89L351.61 522.48" stroke="hsl(228.5, 77.2%, 51.5%)" stroke-width="1.5"></path><path d="M257.23 675.89L108.63 560.17" stroke="hsl(228.5, 77.2%, 51.5%)" stroke-width="1.5"></path><path d="M257.23 675.89L51.91 646.33" stroke="hsl(228.5, 77.2%, 51.5%)" stroke-width="1.5"></path><path d="M257.23 675.89L530.65 657.94" stroke="hsl(228.5, 77.2%, 51.5%)" stroke-width="1.5"></path><path d="M351.61 522.48L351.61 522.48" stroke="hsl(228.5, 77.2%, 51.5%)" stroke-width="1.5"></path><path d="M351.61 522.48L240.05 500.82" stroke="hsl(228.5, 77.2%, 51.5%)" stroke-width="1.5"></path><path d="M351.61 522.48L363.34 641.95" stroke="hsl(228.5, 77.2%, 51.5%)" stroke-width="1.5"></path><path d="M351.61 522.48L520.26 505.36" stroke="hsl(228.5, 77.2%, 51.5%)" stroke-width="1.5"></path><path d="M351.61 522.48L530.65 657.94" stroke="hsl(228.5, 77.2%, 51.5%)" stroke-width="1.5"></path><path d="M351.61 522.48L542.99 397.09" stroke="hsl(228.5, 77.2%, 51.5%)" stroke-width="1.5"></path><path d="M363.34 641.95L363.34 641.95" stroke="hsl(228.5, 77.2%, 51.5%)" stroke-width="1.5"></path><path d="M363.34 641.95L530.65 657.94" stroke="hsl(228.5, 77.2%, 51.5%)" stroke-width="1.5"></path><path d="M363.34 641.95L240.05 500.82" stroke="hsl(228.5, 77.2%, 51.5%)" stroke-width="1.5"></path><path d="M363.34 641.95L520.26 505.36" stroke="hsl(228.5, 77.2%, 51.5%)" stroke-width="1.5"></path><path d="M363.34 641.95L108.63 560.17" stroke="hsl(228.5, 77.2%, 51.5%)" stroke-width="1.5"></path><path d="M648.5 684.15L648.5 684.15" stroke="hsl(228.5, 77.2%, 51.5%)" stroke-width="1.5"></path><path d="M648.5 684.15L530.65 657.94" stroke="hsl(228.5, 77.2%, 51.5%)" stroke-width="1.5"></path><path d="M830.06 642.99L830.06 642.99" stroke="hsl(228.5, 77.2%, 51.5%)" stroke-width="1.5"></path><path d="M830.06 642.99L825.06 551.8" stroke="hsl(228.5, 77.2%, 51.5%)" stroke-width="1.5"></path><path d="M830.06 642.99L648.5 684.15" stroke="hsl(228.5, 77.2%, 51.5%)" stroke-width="1.5"></path><path d="M830.06 642.99L983.08 517.54" stroke="hsl(228.5, 77.2%, 51.5%)" stroke-width="1.5"></path><path d="M830.06 642.99L675.55 491.02" stroke="hsl(228.5, 77.2%, 51.5%)" stroke-width="1.5"></path><path d="M830.06 642.99L938.4 400.07" stroke="hsl(228.5, 77.2%, 51.5%)" stroke-width="1.5"></path><path d="M830.06 642.99L1122.69 698.93" stroke="hsl(228.5, 77.2%, 51.5%)" stroke-width="1.5"></path><path d="M983.08 517.54L983.08 517.54" stroke="hsl(228.5, 77.2%, 51.5%)" stroke-width="1.5"></path><path d="M983.08 517.54L938.4 400.07" stroke="hsl(228.5, 77.2%, 51.5%)" stroke-width="1.5"></path><path d="M983.08 517.54L1135.94 511.25" stroke="hsl(228.5, 77.2%, 51.5%)" stroke-width="1.5"></path><path d="M983.08 517.54L825.06 551.8" stroke="hsl(228.5, 77.2%, 51.5%)" stroke-width="1.5"></path><path d="M-58.31 492.55L-58.31 492.55" stroke="hsl(228.5, 77.2%, 51.5%)" stroke-width="1.5"></path><path d="M-58.31 492.55L108.63 560.17" stroke="hsl(228.5, 77.2%, 51.5%)" stroke-width="1.5"></path><path d="M-58.31 492.55L51.91 646.33" stroke="hsl(228.5, 77.2%, 51.5%)" stroke-width="1.5"></path><path d="M-58.31 492.55L-89.35 699.6" stroke="hsl(228.5, 77.2%, 51.5%)" stroke-width="1.5"></path><path d="M-58.31 492.55L240.05 500.82" stroke="hsl(228.5, 77.2%, 51.5%)" stroke-width="1.5"></path><path d="M-58.31 492.55L257.23 675.89" stroke="hsl(228.5, 77.2%, 51.5%)" stroke-width="1.5"></path><path d="M-89.35 699.6L-89.35 699.6" stroke="hsl(228.5, 77.2%, 51.5%)" stroke-width="1.5"></path><path d="M-89.35 699.6L51.91 646.33" stroke="hsl(228.5, 77.2%, 51.5%)" stroke-width="1.5"></path><path d="M108.63 560.17L108.63 560.17" stroke="hsl(228.5, 77.2%, 51.5%)" stroke-width="1.5"></path><path d="M108.63 560.17L51.91 646.33" stroke="hsl(228.5, 77.2%, 51.5%)" stroke-width="1.5"></path><path d="M108.63 560.17L240.05 500.82" stroke="hsl(228.5, 77.2%, 51.5%)" stroke-width="1.5"></path><path d="M108.63 560.17L-89.35 699.6" stroke="hsl(228.5, 77.2%, 51.5%)" stroke-width="1.5"></path><path d="M108.63 560.17L351.61 522.48" stroke="hsl(228.5, 77.2%, 51.5%)" stroke-width="1.5"></path><path d="M51.91 646.33L51.91 646.33" stroke="hsl(228.5, 77.2%, 51.5%)" stroke-width="1.5"></path><path d="M240.05 500.82L240.05 500.82" stroke="hsl(228.5, 77.2%, 51.5%)" stroke-width="1.5"></path><path d="M240.05 500.82L51.91 646.33" stroke="hsl(228.5, 77.2%, 51.5%)" stroke-width="1.5"></path><path d="M542.99 397.09L542.99 397.09" stroke="hsl(228.5, 77.2%, 51.5%)" stroke-width="1.5"></path><path d="M542.99 397.09L520.26 505.36" stroke="hsl(228.5, 77.2%, 51.5%)" stroke-width="1.5"></path><path d="M542.99 397.09L675.55 491.02" stroke="hsl(228.5, 77.2%, 51.5%)" stroke-width="1.5"></path><path d="M542.99 397.09L530.65 657.94" stroke="hsl(228.5, 77.2%, 51.5%)" stroke-width="1.5"></path><path d="M542.99 397.09L363.34 641.95" stroke="hsl(228.5, 77.2%, 51.5%)" stroke-width="1.5"></path><path d="M520.26 505.36L520.26 505.36" stroke="hsl(228.5, 77.2%, 51.5%)" stroke-width="1.5"></path><path d="M520.26 505.36L530.65 657.94" stroke="hsl(228.5, 77.2%, 51.5%)" stroke-width="1.5"></path><path d="M520.26 505.36L675.55 491.02" stroke="hsl(228.5, 77.2%, 51.5%)" stroke-width="1.5"></path><path d="M530.65 657.94L530.65 657.94" stroke="hsl(228.5, 77.2%, 51.5%)" stroke-width="1.5"></path><path d="M530.65 657.94L675.55 491.02" stroke="hsl(228.5, 77.2%, 51.5%)" stroke-width="1.5"></path><path d="M675.55 491.02L675.55 491.02" stroke="hsl(228.5, 77.2%, 51.5%)" stroke-width="1.5"></path><path d="M675.55 491.02L825.06 551.8" stroke="hsl(228.5, 77.2%, 51.5%)" stroke-width="1.5"></path><path d="M675.55 491.02L648.5 684.15" stroke="hsl(228.5, 77.2%, 51.5%)" stroke-width="1.5"></path><path d="M825.06 551.8L825.06 551.8" stroke="hsl(228.5, 77.2%, 51.5%)" stroke-width="1.5"></path><path d="M938.4 400.07L938.4 400.07" stroke="hsl(228.5, 77.2%, 51.5%)" stroke-width="1.5"></path><path d="M938.4 400.07L1091.7 376.28" stroke="hsl(228.5, 77.2%, 51.5%)" stroke-width="1.5"></path><path d="M938.4 400.07L825.06 551.8" stroke="hsl(228.5, 77.2%, 51.5%)" stroke-width="1.5"></path><path d="M1118.77 242.68L1118.77 242.68" stroke="hsl(228.5, 77.2%, 51.5%)" stroke-width="1.5"></path><path d="M1118.77 242.68L1091.7 376.28" stroke="hsl(228.5, 77.2%, 51.5%)" stroke-width="1.5"></path><path d="M1118.77 242.68L1270.43 233.36" stroke="hsl(228.5, 77.2%, 51.5%)" stroke-width="1.5"></path><path d="M1118.77 242.68L1261.16 344.81" stroke="hsl(228.5, 77.2%, 51.5%)" stroke-width="1.5"></path><path d="M1118.77 242.68L1247.73 44.93" stroke="hsl(228.5, 77.2%, 51.5%)" stroke-width="1.5"></path><path d="M1118.77 242.68L938.4 400.07" stroke="hsl(228.5, 77.2%, 51.5%)" stroke-width="1.5"></path><path d="M1118.77 242.68L1135.94 511.25" stroke="hsl(228.5, 77.2%, 51.5%)" stroke-width="1.5"></path><path d="M1091.7 376.28L1091.7 376.28" stroke="hsl(228.5, 77.2%, 51.5%)" stroke-width="1.5"></path><path d="M1091.7 376.28L1135.94 511.25" stroke="hsl(228.5, 77.2%, 51.5%)" stroke-width="1.5"></path><path d="M1135.94 511.25L1135.94 511.25" stroke="hsl(228.5, 77.2%, 51.5%)" stroke-width="1.5"></path><path d="M1122.69 698.93L1122.69 698.93" stroke="hsl(228.5, 77.2%, 51.5%)" stroke-width="1.5"></path><path d="M1122.69 698.93L1246.52 710.02" stroke="hsl(228.5, 77.2%, 51.5%)" stroke-width="1.5"></path><path d="M1122.69 698.93L1135.94 511.25" stroke="hsl(228.5, 77.2%, 51.5%)" stroke-width="1.5"></path><path d="M1122.69 698.93L983.08 517.54" stroke="hsl(228.5, 77.2%, 51.5%)" stroke-width="1.5"></path><path d="M1122.69 698.93L1311.78 487.78" stroke="hsl(228.5, 77.2%, 51.5%)" stroke-width="1.5"></path><path d="M1122.69 698.93L1409.01 641.97" stroke="hsl(228.5, 77.2%, 51.5%)" stroke-width="1.5"></path><path d="M1263.84 -79.73L1263.84 -79.73" stroke="hsl(228.5, 77.2%, 51.5%)" stroke-width="1.5"></path><path d="M1263.84 -79.73L1247.73 44.93" stroke="hsl(228.5, 77.2%, 51.5%)" stroke-width="1.5"></path><path d="M1263.84 -79.73L1461.51 -93.83" stroke="hsl(228.5, 77.2%, 51.5%)" stroke-width="1.5"></path><path d="M1247.73 44.93L1247.73 44.93" stroke="hsl(228.5, 77.2%, 51.5%)" stroke-width="1.5"></path><path d="M1247.73 44.93L1416.48 73.17" stroke="hsl(228.5, 77.2%, 51.5%)" stroke-width="1.5"></path><path d="M1247.73 44.93L1270.43 233.36" stroke="hsl(228.5, 77.2%, 51.5%)" stroke-width="1.5"></path><path d="M1247.73 44.93L1461.51 -93.83" stroke="hsl(228.5, 77.2%, 51.5%)" stroke-width="1.5"></path><path d="M1270.43 233.36L1270.43 233.36" stroke="hsl(228.5, 77.2%, 51.5%)" stroke-width="1.5"></path><path d="M1270.43 233.36L1261.16 344.81" stroke="hsl(228.5, 77.2%, 51.5%)" stroke-width="1.5"></path><path d="M1261.16 344.81L1261.16 344.81" stroke="hsl(228.5, 77.2%, 51.5%)" stroke-width="1.5"></path><path d="M1261.16 344.81L1311.78 487.78" stroke="hsl(228.5, 77.2%, 51.5%)" stroke-width="1.5"></path><path d="M1261.16 344.81L1091.7 376.28" stroke="hsl(228.5, 77.2%, 51.5%)" stroke-width="1.5"></path><path d="M1311.78 487.78L1311.78 487.78" stroke="hsl(228.5, 77.2%, 51.5%)" stroke-width="1.5"></path><path d="M1311.78 487.78L1417.67 491.35" stroke="hsl(228.5, 77.2%, 51.5%)" stroke-width="1.5"></path><path d="M1311.78 487.78L1446.45 402.3" stroke="hsl(228.5, 77.2%, 51.5%)" stroke-width="1.5"></path><path d="M1246.52 710.02L1246.52 710.02" stroke="hsl(228.5, 77.2%, 51.5%)" stroke-width="1.5"></path><path d="M1246.52 710.02L1409.01 641.97" stroke="hsl(228.5, 77.2%, 51.5%)" stroke-width="1.5"></path><path d="M1246.52 710.02L1135.94 511.25" stroke="hsl(228.5, 77.2%, 51.5%)" stroke-width="1.5"></path><path d="M1246.52 710.02L1311.78 487.78" stroke="hsl(228.5, 77.2%, 51.5%)" stroke-width="1.5"></path><path d="M1461.51 -93.83L1461.51 -93.83" stroke="hsl(228.5, 77.2%, 51.5%)" stroke-width="1.5"></path><path d="M1461.51 -93.83L1573.58 -86.12" stroke="hsl(228.5, 77.2%, 51.5%)" stroke-width="1.5"></path><path d="M1461.51 -93.83L1562.88 38.62" stroke="hsl(228.5, 77.2%, 51.5%)" stroke-width="1.5"></path><path d="M1461.51 -93.83L1416.48 73.17" stroke="hsl(228.5, 77.2%, 51.5%)" stroke-width="1.5"></path><path d="M1416.48 73.17L1416.48 73.17" stroke="hsl(228.5, 77.2%, 51.5%)" stroke-width="1.5"></path><path d="M1416.48 73.17L1562.88 38.62" stroke="hsl(228.5, 77.2%, 51.5%)" stroke-width="1.5"></path><path d="M1448.57 230.05L1448.57 230.05" stroke="hsl(228.5, 77.2%, 51.5%)" stroke-width="1.5"></path><path d="M1448.57 230.05L1539.83 210.03" stroke="hsl(228.5, 77.2%, 51.5%)" stroke-width="1.5"></path><path d="M1448.57 230.05L1416.48 73.17" stroke="hsl(228.5, 77.2%, 51.5%)" stroke-width="1.5"></path><path d="M1448.57 230.05L1446.45 402.3" stroke="hsl(228.5, 77.2%, 51.5%)" stroke-width="1.5"></path><path d="M1446.45 402.3L1446.45 402.3" stroke="hsl(228.5, 77.2%, 51.5%)" stroke-width="1.5"></path><path d="M1446.45 402.3L1417.67 491.35" stroke="hsl(228.5, 77.2%, 51.5%)" stroke-width="1.5"></path><path d="M1446.45 402.3L1578.22 348.91" stroke="hsl(228.5, 77.2%, 51.5%)" stroke-width="1.5"></path><path d="M1417.67 491.35L1417.67 491.35" stroke="hsl(228.5, 77.2%, 51.5%)" stroke-width="1.5"></path><path d="M1417.67 491.35L1552.83 548.03" stroke="hsl(228.5, 77.2%, 51.5%)" stroke-width="1.5"></path><path d="M1417.67 491.35L1409.01 641.97" stroke="hsl(228.5, 77.2%, 51.5%)" stroke-width="1.5"></path><path d="M1417.67 491.35L1553.69 643.84" stroke="hsl(228.5, 77.2%, 51.5%)" stroke-width="1.5"></path><path d="M1409.01 641.97L1409.01 641.97" stroke="hsl(228.5, 77.2%, 51.5%)" stroke-width="1.5"></path><path d="M1409.01 641.97L1553.69 643.84" stroke="hsl(228.5, 77.2%, 51.5%)" stroke-width="1.5"></path><path d="M1409.01 641.97L1552.83 548.03" stroke="hsl(228.5, 77.2%, 51.5%)" stroke-width="1.5"></path><path d="M1409.01 641.97L1311.78 487.78" stroke="hsl(228.5, 77.2%, 51.5%)" stroke-width="1.5"></path><path d="M1409.01 641.97L1446.45 402.3" stroke="hsl(228.5, 77.2%, 51.5%)" stroke-width="1.5"></path><path d="M1573.58 -86.12L1573.58 -86.12" stroke="hsl(228.5, 77.2%, 51.5%)" stroke-width="1.5"></path><path d="M1573.58 -86.12L1562.88 38.62" stroke="hsl(228.5, 77.2%, 51.5%)" stroke-width="1.5"></path><path d="M1562.88 38.62L1562.88 38.62" stroke="hsl(228.5, 77.2%, 51.5%)" stroke-width="1.5"></path><path d="M1562.88 38.62L1539.83 210.03" stroke="hsl(228.5, 77.2%, 51.5%)" stroke-width="1.5"></path><path d="M1539.83 210.03L1539.83 210.03" stroke="hsl(228.5, 77.2%, 51.5%)" stroke-width="1.5"></path><path d="M1578.22 348.91L1578.22 348.91" stroke="hsl(228.5, 77.2%, 51.5%)" stroke-width="1.5"></path><path d="M1578.22 348.91L1539.83 210.03" stroke="hsl(228.5, 77.2%, 51.5%)" stroke-width="1.5"></path><path d="M1552.83 548.03L1552.83 548.03" stroke="hsl(228.5, 77.2%, 51.5%)" stroke-width="1.5"></path><path d="M1552.83 548.03L1553.69 643.84" stroke="hsl(228.5, 77.2%, 51.5%)" stroke-width="1.5"></path><path d="M1552.83 548.03L1446.45 402.3" stroke="hsl(228.5, 77.2%, 51.5%)" stroke-width="1.5"></path><path d="M1552.83 548.03L1578.22 348.91" stroke="hsl(228.5, 77.2%, 51.5%)" stroke-width="1.5"></path><path d="M1552.83 548.03L1311.78 487.78" stroke="hsl(228.5, 77.2%, 51.5%)" stroke-width="1.5"></path><path d="M1553.69 643.84L1553.69 643.84" stroke="hsl(228.5, 77.2%, 51.5%)" stroke-width="1.5"></path><path d="M1553.69 643.84L1446.45 402.3" stroke="hsl(228.5, 77.2%, 51.5%)" stroke-width="1.5"></path><circle r="25" cx="257.23" cy="675.89" fill="url(#SvgjsRadialGradient1001)"></circle><circle r="25" cx="351.61" cy="522.48" fill="url(#SvgjsRadialGradient1001)"></circle><circle r="25" cx="363.34" cy="641.95" fill="url(#SvgjsRadialGradient1001)"></circle><circle r="25" cx="648.5" cy="684.15" fill="url(#SvgjsRadialGradient1001)"></circle><circle r="25" cx="830.06" cy="642.99" fill="url(#SvgjsRadialGradient1001)"></circle><circle r="25" cx="983.08" cy="517.54" fill="url(#SvgjsRadialGradient1001)"></circle><circle r="5" cx="-58.31" cy="492.55" fill="#8b9ad9"></circle><circle r="5" cx="-89.35" cy="699.6" fill="#8b9ad9"></circle><circle r="5" cx="108.63" cy="560.17" fill="#8b9ad9"></circle><circle r="5" cx="51.91" cy="646.33" fill="#8b9ad9"></circle><circle r="5" cx="240.05" cy="500.82" fill="#8b9ad9"></circle><circle r="5" cx="542.99" cy="397.09" fill="#8b9ad9"></circle><circle r="5" cx="520.26" cy="505.36" fill="#8b9ad9"></circle><circle r="5" cx="530.65" cy="657.94" fill="#8b9ad9"></circle><circle r="5" cx="675.55" cy="491.02" fill="#8b9ad9"></circle><circle r="5" cx="825.06" cy="551.8" fill="#8b9ad9"></circle><circle r="5" cx="938.4" cy="400.07" fill="#8b9ad9"></circle><circle r="5" cx="1118.77" cy="242.68" fill="#8b9ad9"></circle><circle r="5" cx="1091.7" cy="376.28" fill="#8b9ad9"></circle><circle r="5" cx="1135.94" cy="511.25" fill="#8b9ad9"></circle><circle r="5" cx="1122.69" cy="698.93" fill="#8b9ad9"></circle><circle r="5" cx="1263.84" cy="-79.73" fill="#8b9ad9"></circle><circle r="5" cx="1247.73" cy="44.93" fill="#8b9ad9"></circle><circle r="5" cx="1270.43" cy="233.36" fill="#8b9ad9"></circle><circle r="5" cx="1261.16" cy="344.81" fill="#8b9ad9"></circle><circle r="5" cx="1311.78" cy="487.78" fill="#8b9ad9"></circle><circle r="5" cx="1246.52" cy="710.02" fill="#8b9ad9"></circle><circle r="5" cx="1461.51" cy="-93.83" fill="#8b9ad9"></circle><circle r="5" cx="1416.48" cy="73.17" fill="#8b9ad9"></circle><circle r="5" cx="1448.57" cy="230.05" fill="#8b9ad9"></circle><circle r="5" cx="1446.45" cy="402.3" fill="#8b9ad9"></circle><circle r="5" cx="1417.67" cy="491.35" fill="#8b9ad9"></circle><circle r="5" cx="1409.01" cy="641.97" fill="#8b9ad9"></circle><circle r="5" cx="1573.58" cy="-86.12" fill="#8b9ad9"></circle><circle r="5" cx="1562.88" cy="38.62" fill="#8b9ad9"></circle><circle r="5" cx="1539.83" cy="210.03" fill="#8b9ad9"></circle><circle r="5" cx="1578.22" cy="348.91" fill="#8b9ad9"></circle><circle r="5" cx="1552.83" cy="548.03" fill="#8b9ad9"></circle><circle r="5" cx="1553.69" cy="643.84" fill="#8b9ad9"></circle></g><defs><mask id="SvgjsMask1000"><rect width="1440" height="560" fill="#ffffff"></rect></mask><radialGradient id="SvgjsRadialGradient1001"><stop stop-color="#ffffff" offset="0.1"></stop><stop stop-color="#1735b3" offset="0.2"></stop><stop stop-color="rgba(23, 53, 179, 0)" offset="1"></stop></radialGradient></defs></svg>